<mxfile host="app.diagrams.net" modified="2024-02-10T07:27:22.150Z" agent="Mozilla/5.0 (Windows NT 10.0; Win64; x64) AppleWebKit/537.36 (KHTML, like Gecko) Chrome/121.0.0.0 Safari/537.36 Edg/121.0.0.0" version="23.1.2" etag="9TOl4FbHCyBVLCSldPuo" type="github">
  <diagram name="Page-1" id="FwLypaNw0ejfId4QT2Bq">
    <mxGraphModel>
      <root>
        <mxCell id="0" />
        <mxCell id="1" parent="0" />
      </root>
    </mxGraphModel>
  </diagram>
</mxfile>
